<svg t="1688566305480" class="icon" viewBox="0 0 1024 1024" version="1.1" xmlns="http://www.w3.org/2000/svg" p-id="30032" width="200" height="200"><path d="M811.115789 1005.136842H212.884211a194.290526 194.290526 0 0 1-194.021053-194.021053V212.884211A194.290526 194.290526 0 0 1 212.884211 18.863158h598.231578a194.290526 194.290526 0 0 1 194.021053 194.021053v598.231578a194.290526 194.290526 0 0 1-194.021053 194.021053zM212.884211 72.757895a140.126316 140.126316 0 0 0-140.126316 140.126316v598.231578a140.126316 140.126316 0 0 0 140.126316 140.126316h598.231578a140.126316 140.126316 0 0 0 140.126316-140.126316V212.884211a140.126316 140.126316 0 0 0-140.126316-140.126316z" p-id="30033"></path><path d="M788.210526 350.315789H439.781053a25.6 25.6 0 1 1 0-50.930526h348.429473a25.6 25.6 0 0 1 0 50.930526zM292.109474 350.315789H233.903158a26.947368 26.947368 0 0 1 0-53.894736h58.206316a26.947368 26.947368 0 0 1 0 53.894736zM788.210526 538.947368H439.781053a25.6 25.6 0 1 1 0-50.930526h348.429473a25.6 25.6 0 0 1 0 50.930526zM292.109474 540.564211H233.903158a26.947368 26.947368 0 0 1 0-53.894737h58.206316a26.947368 26.947368 0 0 1 0 53.894737zM788.210526 745.094737H439.781053a25.6 25.6 0 1 1 0-50.930526h348.429473a25.6 25.6 0 0 1 0 50.930526zM292.109474 746.442105H233.903158a26.947368 26.947368 0 1 1 0-53.894737h58.206316a26.947368 26.947368 0 0 1 0 53.894737z" p-id="30034"></path></svg>