<svg t="1688566794426" class="icon" viewBox="0 0 1108 1024" version="1.1" xmlns="http://www.w3.org/2000/svg" p-id="32357" width="200" height="200"><path d="M917.504 0H185.685333C81.92 0 0 81.92 0 185.685333v652.629334c0 101.034667 81.92 185.685333 185.685333 185.685333h734.549334c101.034667 0 185.685333-81.92 185.685333-185.685333V185.685333C1103.189333 81.92 1021.269333 0 917.504 0z m109.226667 838.314667c0 60.074667-49.152 106.496-106.496 106.496H185.685333c-60.074667 0-106.496-49.152-106.496-106.496V185.685333c0-60.074667 49.152-106.496 106.496-106.496h734.549334c60.074667 0 106.496 49.152 106.496 106.496v652.629334z" fill="#211613" p-id="32358"></path><path d="M933.888 748.202667H846.506667V352.256c0-21.845333-16.384-38.229333-38.229334-38.229333s-38.229333 16.384-38.229333 38.229333v395.946667h-174.762667V240.298667c0-21.845333-16.384-38.229333-38.229333-38.229334s-40.96 16.384-40.96 38.229334v507.904h-177.493333V464.213333c0-21.845333-16.384-38.229333-38.229334-38.229333s-38.229333 16.384-38.229333 38.229333v283.989334H169.301333c-21.845333 0-38.229333 16.384-38.229333 38.229333s16.384 38.229333 38.229333 38.229333h767.317334c21.845333 0 38.229333-16.384 38.229333-38.229333s-19.114667-38.229333-40.96-38.229333z" fill="#211613" p-id="32359"></path></svg>