<svg t="1688566995148" class="icon" viewBox="0 0 1024 1024" version="1.1" xmlns="http://www.w3.org/2000/svg" p-id="38292" width="200" height="200"><path d="M957.760366 212.046441c0-82.544994-66.911946-149.462057-149.45694-149.462057L210.484875 62.584384c-82.547041 0-149.46308 66.917062-149.46308 149.462057l0 597.817528c0 82.547041 66.917062 149.458987 149.46308 149.458987l597.817528 0c82.544994 0 149.45694-66.911946 149.45694-149.458987L957.759343 212.046441 957.760366 212.046441z" fill="#272636" p-id="38293"></path><path d="M882.951567 783.628444c0 56.280818-45.626153 101.906971-101.906971 101.906971L236.716306 885.535415c-56.280818 0-101.906971-45.626153-101.906971-101.906971L134.809335 239.305271c0-56.280818 45.626153-101.906971 101.906971-101.906971l544.328289 0c56.280818 0 101.906971 45.626153 101.906971 101.906971L882.951567 783.628444 882.951567 783.628444z" fill="#FFFFFF" p-id="38294"></path><path d="M719.609385 700.094936" fill="#272636" p-id="38295"></path><path d="M204.800409 214.008118l44.401256 0 0 615.983259-44.401256 0L204.800409 214.008118 204.800409 214.008118zM557.195342 389.415081l0-88.802512c-29.601178 7.111978-59.202357 14.236236-88.806605 18.953677l0 88.802512C497.992985 403.651316 527.59314 396.529105 557.195342 389.415081L557.195342 389.415081zM645.291772 195.137329c-29.365818 4.681626-58.731636 11.729136-88.096431 18.785855l0 86.689385c29.364795-7.057743 58.730613-14.104229 88.096431-18.785855L645.291772 195.137329 645.291772 195.137329zM468.388736 232.878908c-28.895097 4.603855-57.790194 6.916527-86.685291 4.687766l0 86.685291c28.895097 2.230808 57.790194-0.080841 86.685291-4.685719L468.388736 232.878908 468.388736 232.878908zM292.89684 300.69648l0 88.802512c29.601178 14.226003 59.202357 21.272489 88.806605 23.557532l0-88.805582C352.099197 321.969992 322.498018 314.922483 292.89684 300.69648L292.89684 300.69648zM820.782645 477.596446l0-88.096431c-28.894074-13.890358-57.793264-20.936845-86.688361-23.387663l0 88.096431C762.989381 456.662671 791.888572 463.709157 820.782645 477.596446L820.782645 477.596446zM645.291772 547.532261c29.601178-4.718465 59.201333-7.031137 88.802512-4.516874l0-88.802512c-29.601178-2.514263-59.202357-0.201591-88.802512 4.516874L645.291772 547.532261 645.291772 547.532261zM468.388736 585.268724c29.604248-4.714372 59.204403-11.838629 88.806605-18.953677l0-88.802512c-29.601178 7.115048-59.202357 14.236236-88.806605 18.954701L468.388736 585.268724 468.388736 585.268724zM292.89684 566.398958c29.601178 14.229073 59.202357 21.276582 88.806605 23.558555l0-88.802512c-29.604248-2.282996-59.204403-9.329483-88.806605-23.558555L292.89684 566.398958 292.89684 566.398958zM645.291772 281.826713l0 88.802512c29.601178-4.715395 59.201333-7.027044 88.802512-4.516874l0-88.802512C704.493106 274.798647 674.891927 277.108249 645.291772 281.826713L645.291772 281.826713zM820.782645 214.008118c-28.894074-13.889335-57.793264-20.936845-86.688361-23.387663l0 86.689385c28.895097 2.449795 57.794287 9.497305 86.688361 23.387663L820.782645 214.008118 820.782645 214.008118zM557.195342 389.415081l0 88.096431c29.364795-7.057743 58.730613-14.104229 88.096431-18.782785l0-88.099501C615.925954 375.309828 586.560136 382.358361 557.195342 389.415081L557.195342 389.415081zM381.703445 413.057547l0 88.097454c28.895097 2.228761 57.790194-0.083911 86.685291-4.687766l0-88.097454C439.493639 412.973636 410.598542 415.285285 381.703445 413.057547L381.703445 413.057547zM381.703445 413.057547" fill="#272636" p-id="38296"></path></svg>